<svg width="14" height="14" viewBox="0 0 14 14" fill="none" xmlns="http://www.w3.org/2000/svg">
<path d="M7.5835 6.85414C7.47267 6.85414 7.36184 6.81331 7.27434 6.72581C7.10517 6.55664 7.10517 6.27664 7.27434 6.10747L12.0577 1.32414C12.2268 1.15497 12.5068 1.15497 12.676 1.32414C12.8452 1.49331 12.8452 1.77331 12.676 1.94247L7.89267 6.72581C7.80517 6.81331 7.69434 6.85414 7.5835 6.85414Z" fill="#0089F1"/>
<path d="M12.8332 4.40419C12.594 4.40419 12.3957 4.20585 12.3957 3.96669V1.60419H10.0332C9.79404 1.60419 9.5957 1.40585 9.5957 1.16669C9.5957 0.92752 9.79404 0.729187 10.0332 0.729187H12.8332C13.0724 0.729187 13.2707 0.92752 13.2707 1.16669V3.96669C13.2707 4.20585 13.0724 4.40419 12.8332 4.40419Z" fill="#0089F1"/>
<path d="M8.75033 13.2709H5.25033C2.08283 13.2709 0.729492 11.9175 0.729492 8.75002V5.25002C0.729492 2.08252 2.08283 0.729187 5.25033 0.729187H6.41699C6.65616 0.729187 6.85449 0.92752 6.85449 1.16669C6.85449 1.40585 6.65616 1.60419 6.41699 1.60419H5.25033C2.56116 1.60419 1.60449 2.56085 1.60449 5.25002V8.75002C1.60449 11.4392 2.56116 12.3959 5.25033 12.3959H8.75033C11.4395 12.3959 12.3962 11.4392 12.3962 8.75002V7.58335C12.3962 7.34419 12.5945 7.14585 12.8337 7.14585C13.0728 7.14585 13.2712 7.34419 13.2712 7.58335V8.75002C13.2712 11.9175 11.9178 13.2709 8.75033 13.2709Z" fill="#0089F1"/>
</svg>
