<svg width="90" height="72" viewBox="0 0 90 72" fill="none" xmlns="http://www.w3.org/2000/svg">
<path d="M52.5001 31.6083C52.4834 31.6083 52.4584 31.6083 52.4334 31.6083C48.0251 31.1667 43.6251 31 39.2667 31.4417L37.5667 31.6083C37.2167 31.6417 36.9084 31.3917 36.8751 31.0417C36.8417 30.6917 37.0917 30.3917 37.4334 30.3583L39.1334 30.1917C43.5667 29.7417 48.0584 29.9167 52.5584 30.3583C52.9001 30.3917 53.1501 30.7 53.1167 31.0417C53.0917 31.3667 52.8167 31.6083 52.5001 31.6083Z" fill="#EF3A4B"/>
<path d="M42.0836 30.7667C42.0503 30.7667 42.017 30.7667 41.9753 30.7584C41.642 30.7 41.4086 30.375 41.467 30.0417L41.6503 28.95C41.7836 28.15 41.967 27.0417 43.9086 27.0417H46.092C48.042 27.0417 48.2253 28.1917 48.3503 28.9584L48.5336 30.0417C48.592 30.3834 48.3586 30.7084 48.0253 30.7584C47.6836 30.8167 47.3586 30.5834 47.3086 30.25L47.1253 29.1667C47.0086 28.4417 46.9836 28.3 46.1003 28.3H43.917C43.0336 28.3 43.017 28.4167 42.892 29.1584L42.7003 30.2417C42.6503 30.55 42.3836 30.7667 42.0836 30.7667Z" fill="#EF3A4B"/>
<path d="M47.675 44.9583H42.325C39.4167 44.9583 39.3 43.35 39.2083 42.05L38.6667 33.6583C38.6417 33.3167 38.9083 33.0167 39.25 32.9917C39.6 32.975 39.8917 33.2333 39.9167 33.575L40.4583 41.9667C40.55 43.2333 40.5833 43.7083 42.325 43.7083H47.675C49.425 43.7083 49.4583 43.2333 49.5417 41.9667L50.0833 33.575C50.1083 33.2333 50.4083 32.975 50.75 32.9917C51.0917 33.0167 51.3583 33.3083 51.3333 33.6583L50.7917 42.05C50.7 43.35 50.5833 44.9583 47.675 44.9583Z" fill="#EF3A4B"/>
<path d="M46.3834 40.375H43.6084C43.2667 40.375 42.9834 40.0917 42.9834 39.75C42.9834 39.4083 43.2667 39.125 43.6084 39.125H46.3834C46.7251 39.125 47.0084 39.4083 47.0084 39.75C47.0084 40.0917 46.7251 40.375 46.3834 40.375Z" fill="#EF3A4B"/>
<path d="M47.0837 37.0417H42.917C42.5753 37.0417 42.292 36.7584 42.292 36.4167C42.292 36.075 42.5753 35.7917 42.917 35.7917H47.0837C47.4253 35.7917 47.7087 36.075 47.7087 36.4167C47.7087 36.7584 47.4253 37.0417 47.0837 37.0417Z" fill="#EF3A4B"/>
</svg>
